<svg xmlns="http://www.w3.org/2000/svg" xmlns:xlink="http://www.w3.org/1999/xlink" width="173" height="67" version="1.1" viewBox="0 0 173 67"><title>primary</title><desc>Created with Sketch.</desc><defs><linearGradient id="linearGradient-1" x1="50%" x2="50%" y1="0%" y2="100%"><stop offset="0%" stop-color="#4AD8AC"/><stop offset="100%" stop-color="#4076C4"/></linearGradient></defs><g id="Page-1" fill="none" fill-rule="evenodd" stroke="none" stroke-width="1"><g id="primary"><text id="linkerd" font-family="DINNextLTPro-Medium, DIN Next LT Pro" font-size="30" font-weight="400"><tspan x="82.48" y="41" fill="#424242">linker</tspan> <tspan x="158.65" y="41" fill="#9A9A9A">d</tspan></text><g id="Logo-Symbol-72px"><g id="reverse-2" transform="translate(0.000000, 12.500000)"><polygon id="Fill-1" fill="#40A0B4" points="66.999 27.341 71.999 30.227 71.999 3.115 66.999 .227"/><polygon id="Fill-2" fill="#40A0B4" points="0 3.115 0 30.229 5 27.341 5 .228"/><polygon id="Fill-3" fill="#40A0B4" points="22.003 51.613 27.003 54.5 38.908 47.626 33.908 44.74"/><polygon id="shadow" fill="#338090" points="29.002 47.572 34.002 50.459 38.908 47.626 33.908 44.74"/></g><g id="reverse-1" fill="#45C1A8" transform="translate(24.500000, 37.500000)"><polygon id="Fill-5" points="22.999 18.241 22.999 12.467 1.47 .037 0 .885 .003 .887 .003 4.963"/><polygon id="Fill-6" points=".003 17.665 20.5 29.5 25.501 26.613 .003 11.891"/></g><g id="top-2" fill="#7CE1C0"><polygon id="Fill-7" points="54.763 19.793 59.762 22.679 71.999 15.615 66.998 12.729"/><polygon id="Fill-8" points="38.528 34.939 33.528 32.053 22 38.709 27 41.595"/><polygon id="Fill-9" points="61.001 9.265 56 6.379 43.765 13.443 48.765 16.33"/><polygon id="Fill-10" points="27.531 28.59 22.531 25.703 11.003 32.359 16.003 35.246"/><polygon id="Fill-11" points="32.768 7.094 37.768 9.98 50.004 2.916 45.003 .029"/><polygon id="Fill-12" points=".005 26.009 5.005 28.896 16.533 22.241 11.533 19.354"/></g><g id="gradient" fill="url(#linearGradient-1)" transform="translate(0.000000, 26.000000)"><polygon id="Fill-13" points="66.999 2.894 66.999 28.299 71.999 25.412 71.999 .007"/><polygon id="Fill-14" points="60.998 31.762 60.998 6.358 55.998 9.245 55.998 34.649"/><polygon id="Fill-15" points="44.998 15.596 44.998 41 49.999 38.113 49.999 12.709"/><polygon id="Fill-16" points="22.003 38.113 27.003 41 27.003 15.596 22.003 12.709"/><polygon id="Fill-17" points="16.003 9.245 16.003 34.649 11.003 31.763 11.003 6.358"/><polygon id="Fill-18" points=".003 25.412 5.003 28.298 5.003 2.894 .003 .007"/></g><g id="shadow" fill="#45C1A8" transform="translate(7.000000, 19.000000)"><polygon id="Fill-19" points="21.999 15.668 26.999 18.554 31.529 15.939 26.529 13.053"/><polygon id="Fill-20" points=".004 2.969 5.004 5.855 9.533 3.24 4.534 .354"/><polygon id="Fill-21" points="11.002 9.318 16.002 12.205 20.531 9.59 15.531 6.703"/></g><g id="top-1" fill="#A2EACF"><polygon id="Fill-22" points="27 .026 22 2.913 66.998 28.893 71.998 26.007"/><polygon id="Fill-23" points="16 6.378 11 9.264 55.998 35.245 60.999 32.358"/><polygon id="Fill-24" points="0 15.615 44.998 41.595 49.998 38.709 5 12.728"/></g></g></g></g></svg>