<svg xmlns="http://www.w3.org/2000/svg" xmlns:xlink="http://www.w3.org/1999/xlink" x="0" y="0" version="1.0" viewBox="0 0 166.7 43.7" style="enable-background:new 0 0 166.7 43.7" xml:space="preserve"><style type="text/css">.st0{fill:#303030}.st1{filter:url(#Adobe_OpacityMaskFilter)}.st2{fill:url(#SVGID_2_)}.st3{mask:url(#SVGID_1_)}</style><switch><g><g id="Layer_1"><g><g><path d="M46.6,30.9c1,1,2.3,1.7,3.8,1.7c1.8,0,2.9-0.9,2.9-2.2c0-1.4-1-1.8-2.3-2.4l-2-0.9 c-1.3-0.5-2.8-1.5-2.8-3.5c0-2.1,1.8-3.6,4.3-3.6c1.6,0,3.1,0.7,4,1.7l-0.9,1.1c-0.8-0.8-1.9-1.3-3.1-1.3c-1.5,0-2.6,0.8-2.6,2 c0,1.3,1.2,1.8,2.3,2.3l2,0.8c1.6,0.7,2.8,1.6,2.8,3.6c0,2.2-1.8,3.9-4.7,3.9c-1.9,0-3.6-0.8-4.8-2L46.6,30.9z" class="st0"/><path d="M63.2,27.5c0-1.3-0.4-2.5-2.1-2.5c-1.2,0-2.2,0.5-3,1.1l-0.7-1.2c0.9-0.6,2.4-1.3,4-1.3 c2.5,0,3.5,1.6,3.5,4.2v6.2h-1.4l-0.1-1.2h0c-1,0.8-2.1,1.5-3.4,1.5c-1.7,0-3-1.1-3-2.9C56.9,29.1,58.8,28,63.2,27.5z M60.4,32.8c1,0,1.8-0.5,2.8-1.4v-2.8c-3.4,0.4-4.5,1.2-4.5,2.5C58.6,32.3,59.4,32.8,60.4,32.8z" class="st0"/><path d="M68.1,23.8h1.4l0.1,1.5h0.1c1-1,2-1.7,3.4-1.7c2.1,0,3.1,1.4,3.1,4v6.4h-1.7v-6.2c0-1.9-0.6-2.7-1.9-2.7 c-1,0-1.7,0.5-2.8,1.6v7.3h-1.7V23.8z" class="st0"/><path d="M83.1,23.5c1.2,0,1.9,0.4,2.8,1.2L85.9,23v-3.9h1.7v14.8h-1.4l-0.1-1.2H86c-0.8,0.8-1.9,1.4-3.1,1.4 c-2.5,0-4.2-1.9-4.2-5.3C78.8,25.6,80.8,23.5,83.1,23.5z M83.3,32.7c0.9,0,1.7-0.5,2.6-1.4V26C85,25.3,84.3,25,83.4,25 c-1.6,0-2.9,1.6-2.9,3.9C80.5,31.2,81.5,32.7,83.3,32.7z" class="st0"/><path d="M90.8,31.6c0.9,0.7,1.8,1.2,3,1.2c1.3,0,2-0.7,2-1.6c0-1-1.2-1.5-2.3-1.9c-1.4-0.5-3-1.2-3-2.9 c0-1.6,1.3-2.9,3.5-2.9c1.3,0,2.4,0.5,3.1,1.1l-0.8,1.1c-0.7-0.5-1.4-0.9-2.3-0.9c-1.3,0-1.9,0.7-1.9,1.5 c0,0.9,1.1,1.3,2.2,1.7c1.5,0.5,3.1,1.1,3.1,3.1c0,1.6-1.3,3-3.7,3c-1.4,0-2.8-0.6-3.8-1.4L90.8,31.6z" class="st0"/><path d="M100.1,25.2h-1.5v-1.3l1.6-0.1l0.2-2.8h1.4v2.8h2.7v1.4h-2.7v5.6c0,1.2,0.4,2,1.6,2c0.4,0,0.8-0.1,1.1-0.3 l0.3,1.3c-0.6,0.2-1.2,0.4-1.9,0.4c-2.2,0-2.9-1.4-2.9-3.4V25.2z" class="st0"/><path d="M110.5,23.5c2.5,0,4.7,1.9,4.7,5.3c0,3.4-2.2,5.3-4.7,5.3c-2.5,0-4.7-1.9-4.7-5.3 C105.8,25.5,108,23.5,110.5,23.5z M110.5,32.7c1.7,0,2.9-1.6,2.9-3.9c0-2.3-1.2-3.9-2.9-3.9c-1.7,0-2.9,1.6-2.9,3.9 C107.6,31.2,108.8,32.7,110.5,32.7z" class="st0"/><path d="M117.9,23.8h1.4l0.1,1.8h0.1c0.7-1.3,1.7-2.1,2.9-2.1c0.4,0,0.7,0.1,1.1,0.2l-0.3,1.5 c-0.3-0.1-0.6-0.2-1-0.2c-0.9,0-1.9,0.6-2.6,2.3v6.5h-1.7V23.8z" class="st0"/><path d="M125.1,23.8h1.4l0.1,1.5h0.1c0.9-1,1.9-1.7,3.1-1.7c1.5,0,2.4,0.7,2.8,1.9c1.1-1.1,2.1-1.9,3.3-1.9 c2.1,0,3.1,1.4,3.1,4v6.4h-1.7v-6.2c0-1.9-0.6-2.7-1.9-2.7c-0.8,0-1.6,0.5-2.5,1.6v7.3h-1.7v-6.2c0-1.9-0.6-2.7-1.9-2.7 c-0.7,0-1.6,0.5-2.5,1.6v7.3h-1.7V23.8z" class="st0"/><path d="M143.3,31.5c0.7,0,1.2,0.5,1.2,1.3c0,0.7-0.6,1.3-1.2,1.3c-0.7,0-1.2-0.5-1.2-1.3 C142,32.1,142.6,31.5,143.3,31.5z" class="st0"/><path d="M147.2,20.6c0-0.7,0.5-1.1,1.2-1.1s1.2,0.4,1.2,1.1c0,0.6-0.5,1.1-1.2,1.1S147.2,21.2,147.2,20.6z M147.5,23.8h1.7v10.1h-1.7V23.8z" class="st0"/><path d="M156.6,23.5c2.5,0,4.7,1.9,4.7,5.3c0,3.4-2.2,5.3-4.7,5.3c-2.5,0-4.7-1.9-4.7-5.3 C151.9,25.5,154.1,23.5,156.6,23.5z M156.6,32.7c1.7,0,2.9-1.6,2.9-3.9c0-2.3-1.2-3.9-2.9-3.9c-1.7,0-2.9,1.6-2.9,3.9 C153.7,31.2,154.9,32.7,156.6,32.7z" class="st0"/></g></g><defs><filter id="Adobe_OpacityMaskFilter" width="35" height="36.1" x="6.4" y="2.2" filterUnits="userSpaceOnUse"><feColorMatrix type="matrix" values="1 0 0 0 0 0 1 0 0 0 0 0 1 0 0 0 0 0 1 0"/></filter></defs><mask id="SVGID_1_" width="35" height="36.1" x="6.4" y="2.2" maskUnits="userSpaceOnUse"><g class="st1"><linearGradient id="SVGID_2_" x1="5700.899" x2="5740.288" y1="5775.309" y2="5735.92" gradientTransform="matrix(-1 0 0 -1 5744.1113 5775.3335)" gradientUnits="userSpaceOnUse"><stop offset="0" style="stop-color:#000"/><stop offset=".003" style="stop-color:#010101"/><stop offset=".124" style="stop-color:#3c3c3c"/><stop offset=".248" style="stop-color:#707070"/><stop offset=".372" style="stop-color:#9c9c9c"/><stop offset=".496" style="stop-color:silver"/><stop offset=".621" style="stop-color:#dbdbdb"/><stop offset=".746" style="stop-color:#efefef"/><stop offset=".872" style="stop-color:#fbfbfb"/><stop offset="1" style="stop-color:#fff"/></linearGradient><polygon points="4.7 -.8 42.4 -.8 42.4 40.3 4.7 40.3" class="st2"/></g></mask><g class="st3"><g><g><polygon points="13.2 18.4 13.2 19.7 14.5 19.7 14.6 19.7 16 19.7 16 19.7 17.3 19.7 18.7 19.7 18.7 18.3 18.7 16.9 17.3 16.9 17.3 15.6 16 15.6 16 14.2 14.6 14.2 14.5 14.2 13.2 14.2 13.2 15.6 13.2 15.7 13.2 17.1 13.2 17.1" class="st0"/></g><g><rect width="1.5" height="1.5" x="23.5" y="6" class="st0"/></g><g><polygon points="17.7 16.5 19.2 16.5 19.2 15 17.7 15 17.7 13.5 16.2 13.5 16.2 15 17.7 15" class="st0"/></g><g><polygon points="20.3 15.1 20.3 15.3 20.3 16.5 20.3 16.6 20.3 17.9 21.6 17.9 21.8 17.9 23 17.9 23.1 17.9 24.4 17.9 24.4 17.9 25.8 17.9 25.8 16.5 24.4 16.5 24.4 15.1 23.1 15.1 23.1 13.8 21.8 13.8 21.8 12.5 20.3 12.5 20.3 13.9" class="st0"/></g><g><rect width="1.5" height="1.5" x="22.3" y="11.2" class="st0"/></g><g><rect width="1.5" height="1.5" x="29.8" y="3.2" class="st0"/></g><g><rect width="1.5" height="1.5" x="23.9" y="12.8" class="st0"/></g><g><polygon points="37.4 4.7 37.4 3.3 36.6 3.3 36.6 2.2 35.2 2.2 35.2 3.7 35.9 3.7 35.9 4.7" class="st0"/></g><g><rect width="1.5" height="1.5" x="32.6" y="6.3" class="st0"/></g><g><rect width="1.5" height="1.5" x="25.4" y="14.4" class="st0"/></g><g><polygon points="18.9 21.3 18.9 21.4 18.9 22.6 18.9 22.7 18.9 24.1 18.9 24.1 18.9 25.4 20.2 25.4 20.3 25.4 21.5 25.4 21.7 25.4 22.9 25.4 23 25.4 24.4 25.4 24.4 24.1 24.4 23.9 24.4 22.6 23 22.6 23 21.3 21.7 21.3 21.7 19.9 20.2 19.9 18.9 19.9" class="st0"/></g><g><polygon points="22 19.3 22 20.8 23.5 20.8 23.5 22.3 25 22.3 25 20.8 23.5 20.8 23.5 19.3" class="st0"/></g><g><rect width="1.5" height="1.5" x="33.6" y="10" class="st0"/></g><g><polygon points="31.9 13.7 31.6 13.7 31.6 12.8 30.6 12.8 30.6 12.4 29.2 12.4 29.2 11 27.8 11 27.8 12.4 27.8 12.4 27.8 13.8 27.8 15 27.8 15.2 27.8 16.5 29.3 16.5 29.3 16.5 30.5 16.5 30.5 16.5 31.9 16.5 33.3 16.5 33.3 15 31.9 15" class="st0"/></g><g><rect width="1.5" height="1.5" x="28.5" y="17.4" class="st0"/></g><g><rect width="1.5" height="1.5" x="37" y="10" class="st0"/></g><g><rect width="1.5" height="1.5" x="30" y="19" class="st0"/></g><g><polygon points="41.4 7.6 39.9 7.6 39.9 8.1 39.8 8.1 39.8 9.6 41.3 9.6 41.3 9 41.4 9" class="st0"/></g><g><rect width="1.5" height="1.5" x="37.8" y="13.2" class="st0"/></g><g><rect width="1.5" height="1.5" x="31.6" y="20.5" class="st0"/></g><g><polygon points="30.5 22.5 30.5 21.2 29.2 21.2 29.2 19.9 27.8 19.9 27.8 18.5 26.4 18.5 26.4 20 26.4 21.2 26.4 21.3 26.4 22.5 26.4 22.7 26.4 24 27.7 24 27.8 24 29 24 29.2 24 30.4 24 30.5 24 31.8 24 31.8 22.5" class="st0"/></g><g><rect width="1.5" height="1.5" x="27.8" y="25.1" class="st0"/></g><g><rect width="1.5" height="1.5" x="36.9" y="19.4" class="st0"/></g><g><rect width="1.5" height="1.5" x="29.3" y="26.6" class="st0"/></g><g><polygon points="30 28.3 28.7 28.3 28.7 27 27.4 27 27.4 25.6 25.9 25.6 24.6 25.6 24.6 27.1 24.6 28.3 24.6 28.4 24.6 29.6 24.6 29.8 24.6 31.1 26 31.1 27.2 31.1 27.4 31.1 28.6 31.1 28.7 31.1 30 31.1 30 29.6 30 29.6" class="st0"/></g><g><polygon points="23 32.4 23 27 17.6 27 17.6 21.7 12.3 21.7 12.3 16.4 6.4 16.4 6.4 22.2 6.4 22.2 6.4 27.6 6.4 27.6 6.4 32.4 6.4 32.4 6.4 38.3 12.3 38.3 12.3 38.3 17.6 38.3 17.6 38.3 23 38.3 23 38.3 28.8 38.3 28.8 32.4" class="st0"/></g></g></g></g></g></switch></svg>