<svg xmlns="http://www.w3.org/2000/svg" xmlns:svg="http://www.w3.org/2000/svg" id="svg2" width="710" height="240" version="1.1" xml:space="preserve"><metadata id="metadata8"/><defs id="defs6"><clipPath id="clipPath18" clipPathUnits="userSpaceOnUse"><path id="path20" d="M 0,0 568,0 568,192 0,192 0,0 z"/></clipPath><clipPath id="clipPath28" clipPathUnits="userSpaceOnUse"><path id="path30" d="M 46.17,179.505 C 43.593,177.213 2.034,159.478 0.057,100.166 -1.662,48.609 36.146,23.977 38.151,21.973 8.649,56.916 5.499,143.702 46.17,179.505"/></clipPath><clipPath id="clipPath34" clipPathUnits="userSpaceOnUse"><path id="path36" d="m 0.06,191.078 567.134,0 0,-191.018 -567.134,0 0,191.018 z"/></clipPath><linearGradient id="linearGradient46" x1="0" x2="1" y1="0" y2="0" gradientTransform="matrix(0,-157.533,-157.533,0,23.085,179.5048)" gradientUnits="userSpaceOnUse" spreadMethod="pad"><stop style="stop-opacity:1;stop-color:#9dc2e9" id="stop48" offset="0"/><stop style="stop-opacity:1;stop-color:#527dc8" id="stop50" offset="1"/></linearGradient><clipPath id="clipPath58" clipPathUnits="userSpaceOnUse"><path id="path60" d="M 142.465,189.07 C 138.972,189.243 31.277,212.157 23.257,98.733 23.83,20.254 97.727,-10.394 144.7,3.068 15.237,21.113 27.839,177.786 142.465,189.07"/></clipPath><clipPath id="clipPath64" clipPathUnits="userSpaceOnUse"><path id="path66" d="m 0.06,191.078 567.134,0 0,-191.018 -567.134,0 0,191.018 z"/></clipPath><linearGradient id="linearGradient76" x1="0" x2="1" y1="0" y2="0" gradientTransform="matrix(0,-191.079,-191.079,0,83.9785,191.078)" gradientUnits="userSpaceOnUse" spreadMethod="pad"><stop style="stop-opacity:1;stop-color:#9dc2e9" id="stop78" offset="0"/><stop style="stop-opacity:1;stop-color:#527dc8" id="stop80" offset="1"/></linearGradient><linearGradient id="linearGradient86" x1="0" x2="1" y1="0" y2="0" gradientTransform="matrix(0,-191.079,-191.079,0,83.9785,191.078)" gradientUnits="userSpaceOnUse" spreadMethod="pad"><stop style="stop-opacity:1;stop-color:#9dc2e9" id="stop88" offset="0"/><stop style="stop-opacity:1;stop-color:#527dc8" id="stop90" offset="1"/></linearGradient><clipPath id="clipPath98" clipPathUnits="userSpaceOnUse"><path id="path100" d="M 117.204,158.596 C 104.314,162.033 56.482,147.139 55.05,103.03 53.618,58.921 89.42,44.313 91.712,42.881 c -55.28,68.741 -3.724,109.414 25.492,115.715"/></clipPath><linearGradient id="linearGradient110" x1="0" x2="1" y1="0" y2="0" gradientTransform="matrix(0,-116.19,-116.19,0,86.1055,159.0707)" gradientUnits="userSpaceOnUse" spreadMethod="pad"><stop style="stop-opacity:1;stop-color:#9dc2e9" id="stop112" offset="0"/><stop style="stop-opacity:1;stop-color:#527dc8" id="stop114" offset="1"/></linearGradient><clipPath id="clipPath122" clipPathUnits="userSpaceOnUse"><path id="path124" d="m 174.202,128.521 c 0,0 -1.432,29.502 -54.994,40.1 56.712,13.748 73.325,-39.813 73.325,-39.813 l -18.331,-0.287"/></clipPath><linearGradient id="linearGradient134" x1="0" x2="1" y1="0" y2="0" gradientTransform="matrix(0,-42.356,-42.356,0,155.871,170.8773)" gradientUnits="userSpaceOnUse" spreadMethod="pad"><stop style="stop-opacity:1;stop-color:#9dc2e9" id="stop136" offset="0"/><stop style="stop-opacity:1;stop-color:#527dc8" id="stop138" offset="1"/></linearGradient><clipPath id="clipPath146" clipPathUnits="userSpaceOnUse"><path id="path148" d="m 173.342,48.609 c 0,0 -3.723,-13.748 -38.38,-26.35 41.531,3.723 48.405,26.637 48.405,26.637"/></clipPath><linearGradient id="linearGradient158" x1="0" x2="1" y1="0" y2="0" gradientTransform="matrix(0,-26.6377,-26.6377,0,159.165,48.896)" gradientUnits="userSpaceOnUse" spreadMethod="pad"><stop style="stop-opacity:1;stop-color:#9dc2e9" id="stop160" offset="0"/><stop style="stop-opacity:1;stop-color:#527dc8" id="stop162" offset="1"/></linearGradient><clipPath id="clipPath170" clipPathUnits="userSpaceOnUse"><path id="path172" d="m 0.06,191.078 567.134,0 0,-191.018 -567.134,0 0,191.018 z"/></clipPath><clipPath id="clipPath176" clipPathUnits="userSpaceOnUse"><path id="path178" d="M 0,0 568,0 568,192 0,192 0,0 z"/></clipPath><clipPath id="clipPath186" clipPathUnits="userSpaceOnUse"><path id="path188" d="m 286.945,115.52 -14.299,0 0,8.029 c 0,4.07 2.42,6.38 6.159,6.38 1.76,0 2.861,-0.33 6.05,-1.87 l 4.729,9.129 c -4.509,2.53 -8.469,3.52 -13.308,3.52 -11.549,0 -18.149,-6.38 -18.149,-17.488 0,-2.53 0.221,-5.39 0.55,-7.7 l -16.716,0 0,8.029 c 0,4.07 2.42,6.38 6.16,6.38 1.759,0 2.859,-0.33 6.048,-1.87 l 4.731,9.129 c -4.51,2.53 -8.47,3.52 -13.309,3.52 -11.549,0 -18.148,-6.38 -18.148,-17.488 0,-2.53 0.22,-5.39 0.55,-7.7 l -5.389,0 0,-11.058 5.059,0 0,-45.255 14.408,0 0,45.255 16.277,0 0,-45.255 14.407,0 0,45.255 16.277,0 0,-45.255 14.738,0 0,57.633 -8.423,-1.32 -8.402,0 z m 89.744,20.128 -15.729,0 0,-76.441 40.366,0 2.751,12.76 -27.388,0 0,63.681 z M 346.224,73.725 c -3.63,-3.189 -6.709,-4.619 -10.12,-4.619 -2.529,0 -5.059,1.21 -6.599,3.189 -1.869,2.421 -2.859,6.819 -2.859,14.189 0,13.199 2.97,18.918 9.569,18.918 2.749,0 5.939,-1.65 8.909,-4.399 l 7.149,9.678 c -2.419,2.09 -3.409,2.86 -5.499,3.96 -3.079,1.649 -7.149,2.529 -10.889,2.529 -4.729,0 -10.228,-1.65 -13.968,-4.179 -6.599,-4.51 -11.549,-13.089 -11.549,-26.067 0,-18.258 9.019,-29.037 24.527,-29.037 5.39,0 9.789,1.211 13.748,3.52 1.981,1.209 2.97,1.98 5.17,4.18 l -6.709,8.908 -0.88,-0.77 z m 203.472,0.11 c -1.431,-1.759 -4.51,-3.63 -7.26,-3.63 -7.698,0 -10.228,3.961 -10.228,16.059 0,12.539 2.86,18.038 9.459,18.038 2.639,0 5.279,-1.21 8.029,-3.629 l 0,-26.838 z m 14.408,5.939 0,58.514 -14.629,2.31 0,-19.358 c 0,-3.3 0.221,-7.149 0.441,-8.359 -2.75,2.2 -5.94,3.189 -10.009,3.189 -14.299,0 -24.088,-12.098 -24.088,-29.695 0,-17.488 9.019,-28.598 23.318,-28.598 5.06,0 9.349,1.539 12.979,4.73 0.218,-1.54 0.439,-2.42 0.879,-3.3 l 13.199,0 c -0.99,2.2 -2.09,6.709 -2.09,20.567 z M 437.292,71.745 c -2.202,-2.419 -4.951,-3.849 -7.701,-3.849 -3.739,0 -6.489,2.969 -6.489,7.369 0,6.709 3.52,8.579 13.748,8.579 l 0.66,0 -0.218,-12.099 z m 14.626,6.16 0.331,18.917 c 0.11,6.05 -0.22,7.81 -0.99,10.119 -2.2,6.27 -8.689,9.789 -18.148,9.789 -5.169,0 -9.899,-0.989 -15.399,-3.299 -3.959,-1.65 -6.159,-2.75 -9.128,-4.62 l 6.269,-10.558 c 6.05,4.069 11.549,6.379 16.278,6.379 5.389,0 6.6,-2.09 6.6,-8.36 l 0,-2.309 c -1.211,0.109 -2.199,0.109 -3.3,0.109 -17.928,0 -27.056,-6.158 -27.056,-19.356 0,-11.219 6.819,-17.599 19.357,-17.599 4.619,0 8.579,1.1 11.329,3.08 1.1,0.77 2.31,1.87 3.409,2.97 1.43,-2.86 4.51,-5.39 7.919,-6.819 l 7.81,9.018 c -4.95,3.74 -5.39,6.379 -5.281,12.539 z m 42.674,38.606 c -3.299,0 -7.149,-0.88 -10.118,-2.42 -2.42,-1.32 -4.29,-2.64 -6.489,-4.18 0,2.31 -0.771,4.73 -2.09,7.04 l -13.089,-3.74 c 1.32,-3.74 1.98,-8.36 1.98,-13.198 l 0,-40.806 14.738,0 0,39.815 c 3.41,3.08 7.259,5.06 10.228,5.06 3.85,0 4.951,-1.87 4.951,-8.249 l 0,-36.626 14.517,0 0,41.136 c 0,3.518 -0.329,5.939 -1.099,8.028 -1.76,4.84 -7.259,8.14 -13.529,8.14 z m -328.188,0.329 c -5.499,0 -10.008,-3.739 -13.198,-8.029 -0.22,3.19 -0.99,5.72 -2.31,8.029 l -13.198,-3.519 c 1.21,-3.19 2.09,-8.909 2.09,-16.499 l 0,-37.615 14.738,0 0,39.815 c 2.75,3.19 5.719,4.73 9.019,4.73 1.649,0 2.859,-0.33 4.289,-1.1 l 4.07,12.979 c -2.31,0.99 -3.3,1.209 -5.5,1.209 z m -22.213,18.808 -55.103,0 0,-12.758 18.698,0 0,-63.683 15.618,0 0,63.683 18.258,0 2.529,12.758 z m 152.43,1.072 c -5.06,0 -9.239,-4.069 -9.239,-9.128 0,-5.06 4.07,-9.129 9.019,-9.129 5.059,0 9.129,4.069 9.129,9.129 0,5.059 -3.959,9.128 -8.909,9.128 z M 200.167,71.745 c -2.2,-2.419 -4.949,-3.849 -7.699,-3.849 -3.739,0 -6.489,2.969 -6.489,7.369 0,6.709 3.52,8.579 13.749,8.579 l 0.659,0 -0.22,-12.099 z m 14.628,6.16 0.33,18.917 c 0.111,6.05 -0.219,7.81 -0.99,10.119 -2.199,6.27 -8.689,9.789 -18.147,9.789 -5.17,0 -9.899,-0.989 -15.398,-3.299 -3.96,-1.65 -6.16,-2.75 -9.13,-4.62 l 6.27,-10.558 c 6.049,4.069 11.549,6.379 16.278,6.379 5.389,0 6.599,-2.09 6.599,-8.36 l 0,-2.309 c -1.21,0.109 -2.2,0.109 -3.299,0.109 -17.928,0 -27.058,-6.158 -27.058,-19.356 0,-11.219 6.82,-17.599 19.359,-17.599 4.619,0 8.579,1.1 11.328,3.08 1.1,0.77 2.31,1.87 3.41,2.97 1.429,-2.86 4.509,-5.39 7.919,-6.819 l 7.809,9.018 c -4.95,3.74 -5.389,6.379 -5.28,12.539"/></clipPath><linearGradient id="linearGradient198" x1="0" x2="1" y1="0" y2="0" gradientTransform="matrix(0,84.3599,84.3599,0,327.641,56.348)" gradientUnits="userSpaceOnUse" spreadMethod="pad"><stop style="stop-opacity:1;stop-color:#fad126" id="stop200" offset="0"/><stop style="stop-opacity:1;stop-color:#fdf5d0" id="stop202" offset="1"/></linearGradient></defs><g id="g10" transform="matrix(1.25,0,0,-1.25,0,240)"><g id="g14"><g id="g16" clip-path="url(#clipPath18)"><path d="m 287.945,114.52 -14.299,0 0,8.029 c 0,4.07 2.42,6.38 6.159,6.38 1.76,0 2.861,-0.33 6.05,-1.87 l 4.729,9.129 c -4.509,2.53 -8.469,3.52 -13.308,3.52 -11.549,0 -18.149,-6.38 -18.149,-17.488 0,-2.53 0.221,-5.39 0.55,-7.7 l -16.716,0 0,8.029 c 0,4.07 2.42,6.38 6.16,6.38 1.759,0 2.859,-0.33 6.048,-1.87 l 4.731,9.129 c -4.51,2.53 -8.47,3.52 -13.309,3.52 -11.549,0 -18.148,-6.38 -18.148,-17.488 0,-2.53 0.22,-5.39 0.55,-7.7 l -5.389,0 0,-11.058 5.059,0 0,-45.255 14.408,0 0,45.255 16.277,0 0,-45.255 14.407,0 0,45.255 16.277,0 0,-45.255 14.738,0 0,57.633 -8.423,-1.32 -8.402,0 z m 89.744,20.128 -15.729,0 0,-76.441 40.366,0 2.751,12.76 -27.388,0 0,63.681 z M 347.224,72.725 c -3.63,-3.189 -6.709,-4.619 -10.12,-4.619 -2.529,0 -5.059,1.21 -6.599,3.189 -1.869,2.421 -2.859,6.819 -2.859,14.189 0,13.199 2.97,18.918 9.569,18.918 2.749,0 5.939,-1.65 8.909,-4.399 l 7.149,9.678 c -2.419,2.09 -3.409,2.86 -5.499,3.96 -3.079,1.649 -7.149,2.529 -10.889,2.529 -4.729,0 -10.228,-1.65 -13.968,-4.179 -6.599,-4.51 -11.549,-13.089 -11.549,-26.067 0,-18.258 9.019,-29.037 24.527,-29.037 5.39,0 9.789,1.211 13.748,3.52 1.981,1.209 2.97,1.98 5.17,4.18 l -6.709,8.908 -0.88,-0.77 z m 203.472,0.11 c -1.431,-1.759 -4.51,-3.63 -7.26,-3.63 -7.698,0 -10.228,3.961 -10.228,16.059 0,12.539 2.86,18.038 9.459,18.038 2.639,0 5.279,-1.21 8.029,-3.629 l 0,-26.838 z m 14.408,5.939 0,58.514 -14.629,2.31 0,-19.358 c 0,-3.3 0.221,-7.149 0.441,-8.359 -2.75,2.2 -5.94,3.189 -10.009,3.189 -14.299,0 -24.088,-12.098 -24.088,-29.695 0,-17.488 9.019,-28.598 23.318,-28.598 5.06,0 9.349,1.539 12.979,4.73 0.218,-1.54 0.439,-2.42 0.879,-3.3 l 13.199,0 c -0.99,2.2 -2.09,6.709 -2.09,20.567 z M 438.292,70.745 c -2.202,-2.419 -4.951,-3.849 -7.701,-3.849 -3.739,0 -6.489,2.969 -6.489,7.369 0,6.709 3.52,8.579 13.748,8.579 l 0.66,0 -0.218,-12.099 z m 14.626,6.16 0.331,18.917 c 0.11,6.05 -0.22,7.81 -0.99,10.119 -2.2,6.27 -8.689,9.789 -18.148,9.789 -5.169,0 -9.899,-0.989 -15.399,-3.299 -3.959,-1.65 -6.159,-2.75 -9.128,-4.62 l 6.269,-10.558 c 6.05,4.069 11.549,6.379 16.278,6.379 5.389,0 6.6,-2.09 6.6,-8.36 l 0,-2.309 c -1.211,0.109 -2.199,0.109 -3.3,0.109 -17.928,0 -27.056,-6.158 -27.056,-19.356 0,-11.219 6.819,-17.599 19.357,-17.599 4.619,0 8.579,1.1 11.329,3.08 1.1,0.77 2.31,1.87 3.409,2.97 1.43,-2.86 4.51,-5.39 7.919,-6.819 l 7.81,9.018 c -4.95,3.74 -5.39,6.379 -5.281,12.539 z m 42.674,38.606 c -3.299,0 -7.149,-0.88 -10.118,-2.42 -2.42,-1.32 -4.29,-2.64 -6.489,-4.18 0,2.31 -0.771,4.73 -2.09,7.04 l -13.089,-3.74 c 1.32,-3.74 1.98,-8.36 1.98,-13.198 l 0,-40.806 14.738,0 0,39.815 c 3.41,3.08 7.259,5.06 10.228,5.06 3.85,0 4.951,-1.87 4.951,-8.249 l 0,-36.626 14.517,0 0,41.136 c 0,3.518 -0.329,5.939 -1.099,8.028 -1.76,4.84 -7.259,8.14 -13.529,8.14 z m -328.188,0.329 c -5.499,0 -10.008,-3.739 -13.198,-8.029 -0.22,3.19 -0.99,5.72 -2.31,8.029 l -13.198,-3.519 c 1.21,-3.19 2.09,-8.909 2.09,-16.499 l 0,-37.615 14.738,0 0,39.815 c 2.75,3.19 5.719,4.73 9.019,4.73 1.649,0 2.859,-0.33 4.289,-1.1 l 4.07,12.979 c -2.31,0.99 -3.3,1.209 -5.5,1.209 z m -22.213,18.808 -55.103,0 0,-12.758 18.698,0 0,-63.683 15.618,0 0,63.683 18.258,0 2.529,12.758 z m 152.43,1.072 c -5.06,0 -9.239,-4.069 -9.239,-9.128 0,-5.06 4.07,-9.129 9.019,-9.129 5.059,0 9.129,4.069 9.129,9.129 0,5.059 -3.959,9.128 -8.909,9.128 z M 201.167,70.745 c -2.2,-2.419 -4.949,-3.849 -7.699,-3.849 -3.739,0 -6.489,2.969 -6.489,7.369 0,6.709 3.52,8.579 13.749,8.579 l 0.659,0 -0.22,-12.099 z m 14.628,6.16 0.33,18.917 c 0.111,6.05 -0.219,7.81 -0.99,10.119 -2.199,6.27 -8.689,9.789 -18.147,9.789 -5.17,0 -9.899,-0.989 -15.398,-3.299 -3.96,-1.65 -6.16,-2.75 -9.13,-4.62 l 6.27,-10.558 c 6.049,4.069 11.549,6.379 16.278,6.379 5.389,0 6.599,-2.09 6.599,-8.36 l 0,-2.309 c -1.21,0.109 -2.2,0.109 -3.299,0.109 -17.928,0 -27.058,-6.158 -27.058,-19.356 0,-11.219 6.82,-17.599 19.359,-17.599 4.619,0 8.579,1.1 11.328,3.08 1.1,0.77 2.31,1.87 3.41,2.97 1.429,-2.86 4.509,-5.39 7.919,-6.819 l 7.809,9.018 c -4.95,3.74 -5.389,6.379 -5.28,12.539" style="fill:#d3b149;fill-opacity:1;fill-rule:nonzero;stroke:none" id="path22"/></g></g><g id="g24"><g id="g26" clip-path="url(#clipPath28)"><g id="g32" clip-path="url(#clipPath34)"><g id="g38"><g id="g44"><path d="M 0,0 568,0 568,192 0,192 0,0 z" style="fill:url(#linearGradient46);stroke:none" id="path52"/></g></g></g></g></g><g id="g54"><g id="g56" clip-path="url(#clipPath58)"><g id="g62" clip-path="url(#clipPath64)"><g id="g68"><g id="g74"><path d="M 0,0 568,0 568,192 0,192 0,0 z" style="fill:url(#linearGradient76);stroke:none" id="path82"/></g><g id="g84"><path d="M 0,0 568,0 568,192 0,192 0,0 z" style="fill:url(#linearGradient86);stroke:none" id="path92"/></g></g></g></g></g><g id="g94"><g id="g96" clip-path="url(#clipPath98)"><g id="g102"><g id="g108"><path d="M 0,0 568,0 568,192 0,192 0,0 z" style="fill:url(#linearGradient110);stroke:none" id="path116"/></g></g></g></g><g id="g118"><g id="g120" clip-path="url(#clipPath122)"><g id="g126"><g id="g132"><path d="M 0,0 568,0 568,192 0,192 0,0 z" style="fill:url(#linearGradient134);stroke:none" id="path140"/></g></g></g></g><g id="g142"><g id="g144" clip-path="url(#clipPath146)"><g id="g150"><g id="g156"><path d="M 0,0 568,0 568,192 0,192 0,0 z" style="fill:url(#linearGradient158);stroke:none" id="path164"/></g></g></g></g><g id="g166"><g id="g168" clip-path="url(#clipPath170)"><g id="g174" clip-path="url(#clipPath176)"><path d="M 101.844,152.874 C 74.133,139.667 43.273,102.73 86.248,45.82 c 2.907,-1.703 4.969,-2.631 5.464,-2.939 -46.352,57.639 -17.59,95.539 10.132,109.993 z m 40.621,36.196 c -1.082,0.053 -6.667,0.046 -5.729,0 C 22.111,177.786 9.508,21.113 138.972,3.068 132.675,1.264 125.893,0.26 118.87,0.05 127.93,-0.234 136.706,0.777 144.7,3.068 15.237,21.113 27.839,177.786 142.465,189.07 z m -23.257,-20.449 c 53.562,-10.598 54.994,-40.1 54.994,-40.1 l 4.578,0.072 c -0.116,1.567 -2.925,29.727 -54.989,40.028 -1.253,0.232 -2.532,0.477 -4.583,0 z M 173.342,48.609 c 0,0 -3.723,-13.748 -38.38,-26.35 3.159,0.283 6.094,0.689 8.864,1.175 31.748,12.267 35.245,25.175 35.245,25.175 l 4.241,0.121 c 0.034,0.099 0.055,0.166 0.055,0.166 L 173.342,48.609 z M 24.954,33.801 C 31.719,26.591 37.406,22.718 38.151,21.973 9.859,55.483 5.809,136.665 41.396,174.844 7.084,142.926 5.36,73.784 24.954,33.801" style="fill:#527dc8;fill-opacity:1;fill-rule:nonzero;stroke:none" id="path180"/></g></g></g><g id="g182"><g id="g184" clip-path="url(#clipPath186)"><g id="g190"><g id="g196"><path d="M 0,0 568,0 568,192 0,192 0,0 z" style="fill:url(#linearGradient198);stroke:none" id="path204"/></g></g></g></g></g></svg>